<?xml version="1.0" encoding="UTF-8" standalone="no"?><!DOCTYPE svg PUBLIC "-//W3C//DTD SVG 1.1//EN" "http://www.w3.org/Graphics/SVG/1.1/DTD/svg11.dtd"><svg width="100%" height="100%" viewBox="0 0 400 49" version="1.1" xmlns="http://www.w3.org/2000/svg" xmlns:xlink="http://www.w3.org/1999/xlink" xml:space="preserve" xmlns:serif="http://www.serif.com/" style="fill-rule:evenodd;clip-rule:evenodd;stroke-linejoin:round;stroke-miterlimit:2;"><rect id="Export" x="-0" y="-500" width="1500" height="1080" style="fill:none;"/><g><path d="M9.012,48.057c0.232,-5.2 0.864,-6.846 1.86,-9.097c0.22,-0.497 0.633,-0.951 1.177,-1.36c0.728,-0.547 1.698,-1.024 2.67,-1.462c0.922,-0.416 1.845,-0.798 2.536,-1.188c0.386,-0.217 0.695,-0.423 0.851,-0.654c1.329,-1.968 1.326,-2.892 2.283,-4.104c1.851,-2.345 1.422,-3.924 1.422,-3.924c-0.081,-0.264 0.067,-0.544 0.331,-0.625c0.264,-0.081 0.544,0.067 0.625,0.331c0,0 0.665,1.977 -1.593,4.838c-0.942,1.193 -0.931,2.107 -2.24,4.044c-0.222,0.329 -0.639,0.655 -1.189,0.965c-0.713,0.401 -1.664,0.798 -2.615,1.228c-0.902,0.407 -1.805,0.842 -2.48,1.35c-0.392,0.295 -0.705,0.608 -0.863,0.965c-0.962,2.174 -1.558,3.769 -1.78,8.779l-0.995,-0.087Z"/><path d="M368.065,24.464l31.225,24.029l-364.605,0c-0.888,-0 -1.751,-0.296 -2.453,-0.84c-4.511,-3.502 -21.583,-16.757 -21.583,-16.757c-2.014,-1.511 -3.2,-3.881 -3.2,-6.399c0,-2.518 1.185,-4.888 3.2,-6.399c0,0 17.072,-13.255 21.583,-16.757c0.702,-0.545 1.564,-0.84 2.453,-0.84c15.571,0 364.605,0 364.605,0l-31.225,23.964Zm-344.619,-3.999c2.207,0 3.999,1.792 3.999,3.999c0,2.207 -1.792,3.999 -3.999,3.999c-2.207,0 -3.999,-1.792 -3.999,-3.999c0,-2.207 1.792,-3.999 3.999,-3.999Z" style="fill:#f0feff;"/><path d="M368.886,24.464l30.709,23.632c0.17,0.131 0.237,0.355 0.168,0.557c-0.069,0.203 -0.259,0.339 -0.473,0.339l-364.605,-0c-0.999,-0 -1.97,-0.333 -2.759,-0.945c-4.511,-3.502 -21.583,-16.757 -21.576,-16.752c-2.14,-1.605 -3.4,-4.124 -3.4,-6.799c0,-2.675 1.259,-5.194 3.393,-6.794c0,0 17.072,-13.255 21.583,-16.757c0.789,-0.613 1.76,-0.945 2.759,-0.945c15.571,0 364.605,0 364.605,0c0.214,-0 0.405,0.136 0.473,0.339c0.069,0.203 0.001,0.427 -0.169,0.557l-30.709,23.568Zm28.932,-23.464l-363.132,-0c-0.777,0 -1.532,0.259 -2.146,0.735c-4.511,3.502 -21.583,16.757 -21.589,16.762c-1.888,1.416 -3,3.639 -3,5.999c0,2.36 1.111,4.583 3,5.999l21.589,16.762c0.614,0.477 1.369,0.735 2.146,0.735l363.136,0l-30.06,-23.132c-0.123,-0.095 -0.195,-0.241 -0.195,-0.397c0,-0.155 0.072,-0.302 0.196,-0.396l30.057,-23.067Zm-374.371,18.965c-2.483,0 -4.499,2.016 -4.499,4.499c0,2.483 2.016,4.499 4.499,4.499c2.483,0 4.499,-2.016 4.499,-4.499c0,-2.483 -2.016,-4.499 -4.499,-4.499Zm0,1c1.931,0 3.499,1.568 3.499,3.499c-0,1.931 -1.568,3.499 -3.499,3.499c-1.931,0 -3.499,-1.568 -3.499,-3.499c0,-1.931 1.568,-3.499 3.499,-3.499Z" style="fill:#4091e3;"/><path d="M11.716,39.449c0.444,-1.535 0.398,-2.31 0.303,-3.244c-0.087,-0.856 -0.219,-1.86 0.009,-3.855c0.217,-1.899 1.226,-4.348 3.427,-6.146c1.499,-1.225 3.035,-1.774 4.261,-1.692c1.081,0.072 1.892,0.668 2.092,1.736c0.051,0.271 0.312,0.45 0.583,0.4c0.271,-0.051 0.45,-0.312 0.4,-0.583c-0.234,-1.249 -1.031,-2.067 -2.149,-2.399c-1.522,-0.452 -3.716,0.046 -5.82,1.765c-2.437,1.991 -3.547,4.705 -3.788,6.807c-0.241,2.106 -0.103,3.166 -0.011,4.07c0.084,0.826 0.124,1.509 -0.268,2.865c-0.077,0.265 0.076,0.543 0.341,0.619c0.265,0.077 0.543,-0.076 0.619,-0.341Z"/></g><g id="Box"></g><g id="Lid"></g><g id="Box1" serif:id="Box"></g><g id="Lid1" serif:id="Lid"></g><g id="Box2" serif:id="Box"></g><g id="Lid2" serif:id="Lid"></g><g id="Box3" serif:id="Box"></g><g id="Lid3" serif:id="Lid"></g><g id="Box4" serif:id="Box"></g><g id="Lid4" serif:id="Lid"></g><g id="Box5" serif:id="Box"></g><g id="Lid5" serif:id="Lid"></g><g id="Box6" serif:id="Box"></g><g id="Lid6" serif:id="Lid"></g><g id="Box7" serif:id="Box"></g><g id="Lid7" serif:id="Lid"></g><g id="Box8" serif:id="Box"></g><g id="Lid8" serif:id="Lid"></g><g id="bg7"></g><g id="bg1"></g><g id="bg2"></g><g id="bg3"></g><g id="bg6"></g><g id="bg8"></g><g id="bg4"></g></svg>