<?xml version="1.0" encoding="UTF-8" standalone="no"?><!DOCTYPE svg PUBLIC "-//W3C//DTD SVG 1.1//EN" "http://www.w3.org/Graphics/SVG/1.1/DTD/svg11.dtd"><svg width="100%" height="100%" viewBox="0 0 57 46" version="1.1" xmlns="http://www.w3.org/2000/svg" xmlns:xlink="http://www.w3.org/1999/xlink" xml:space="preserve" xmlns:serif="http://www.serif.com/" style="fill-rule:evenodd;clip-rule:evenodd;stroke-linejoin:round;stroke-miterlimit:2;"><rect id="Export" x="-200" y="-772" width="1500" height="1080" style="fill:none;"/><g id="Box"></g><g id="Lid"></g><g id="Box1" serif:id="Box"></g><g id="Lid1" serif:id="Lid"></g><ellipse id="Shadow" cx="28.516" cy="43.264" rx="24.127" ry="2.068" style="fill:#45413c;fill-opacity:0.15;"/><g id="Box2" serif:id="Box"><g id="Box-Base" serif:id="Box Base"><path d="M26.803,18.869l-24.403,-8.548l0,23.162c0,0.551 0.414,1.103 0.965,1.241l23.438,8.272c1.241,0.414 2.482,0.414 3.585,0l23.438,-8.272c0.551,-0.138 0.965,-0.689 0.965,-1.241l0,-23.162l-24.403,8.548c-1.103,0.414 -2.482,0.414 -3.585,0Z" style="fill:#647ecf;fill-rule:nonzero;stroke:#67d06e;stroke-width:1px;"/><path d="M3.142,10.392l25.453,-9.06l25.453,8.973l-25.022,9.146l-25.885,-9.06Z" style="fill:#3a36b2;"/><path d="M28.596,20.79l0,-18.613" style="fill:none;fill-rule:nonzero;stroke:#3b4fb0;stroke-width:1.38px;stroke-linecap:round;stroke-miterlimit:10;"/><path d="M30.388,18.869c-1.241,0.414 -2.482,0.414 -3.585,0l-24.403,-8.548l0,6.894l24.403,8.548c1.241,0.414 2.482,0.414 3.585,0l24.403,-8.548l0,-6.894l-24.403,8.548Z" style="fill:#506dc9;fill-rule:nonzero;"/><path d="M28.596,40.79l0,-18.613" style="fill:none;fill-rule:nonzero;stroke:#3b4fb0;stroke-width:1.38px;stroke-linecap:round;stroke-miterlimit:10;"/><path d="M54.791,10.347l-24.403,-8.548c-1.103,-0.414 -2.482,-0.414 -3.585,0l-24.403,8.548" style="fill:none;fill-rule:nonzero;stroke:#15126f;stroke-width:1.38px;stroke-linecap:round;stroke-miterlimit:10;"/><path d="M26.803,18.869l-24.403,-8.548l0,23.162c0,0.551 0.414,1.103 0.965,1.241l23.438,8.272c1.241,0.414 2.482,0.414 3.585,0l23.438,-8.272c0.551,-0.138 0.965,-0.689 0.965,-1.241l0,-23.162l-24.403,8.548c-1.103,0.414 -2.482,0.414 -3.585,0Z" style="fill:none;fill-rule:nonzero;stroke:#15126f;stroke-width:1.38px;stroke-linecap:round;stroke-miterlimit:10;"/></g><g id="Box-Ribbons" serif:id="Box Ribbons"><path d="M49.276,12.251l0,24.127l-12.408,4.274l0,-24.127l12.408,-4.274Z" style="fill:#fff681;fill-rule:nonzero;"/><path d="M7.915,12.251l0,24.127l12.408,4.274l0,-24.127l-12.408,-4.274Z" style="fill:#fff681;fill-rule:nonzero;"/><path d="M7.915,12.251l0,6.894l12.408,4.274l0,-6.894l-12.408,-4.274Z" style="fill:#e9d908;fill-rule:nonzero;"/><path d="M49.276,12.251l0,6.894l-12.408,4.274l0,-6.894l12.408,-4.274Z" style="fill:#e9d908;fill-rule:nonzero;"/><path d="M7.915,12.251l0,24.127l12.408,4.274l0,-24.127l-12.408,-4.274Z" style="fill:none;fill-rule:nonzero;stroke:#746613;stroke-width:1.38px;stroke-linecap:round;stroke-miterlimit:10;"/><path d="M49.276,12.251l0,24.127l-12.408,4.274l0,-24.127l12.408,-4.274Z" style="fill:none;fill-rule:nonzero;stroke:#746613;stroke-width:1.38px;stroke-linecap:round;stroke-miterlimit:10;"/></g></g><g id="Lid2" serif:id="Lid"></g><g id="Box3" serif:id="Box"></g><g id="Lid3" serif:id="Lid"></g><g id="Box4" serif:id="Box"></g><g id="Lid4" serif:id="Lid"></g><g id="Box5" serif:id="Box"></g><g id="Lid5" serif:id="Lid"></g><g id="Box6" serif:id="Box"></g><g id="Lid6" serif:id="Lid"></g><g id="Box7" serif:id="Box"></g><g id="Lid7" serif:id="Lid"></g><g id="Box8" serif:id="Box"></g><g id="Lid8" serif:id="Lid"></g><g id="bg7"></g><g id="bg1"></g><g id="bg2"></g><g id="bg3"></g><g id="bg6"></g><g id="bg8"></g><g id="bg4"></g></svg>