<?xml version="1.0" encoding="UTF-8" standalone="no"?><!DOCTYPE svg PUBLIC "-//W3C//DTD SVG 1.1//EN" "http://www.w3.org/Graphics/SVG/1.1/DTD/svg11.dtd"><svg width="100%" height="100%" viewBox="0 0 57 32" version="1.1" xmlns="http://www.w3.org/2000/svg" xmlns:xlink="http://www.w3.org/1999/xlink" xml:space="preserve" xmlns:serif="http://www.serif.com/" style="fill-rule:evenodd;clip-rule:evenodd;stroke-linejoin:round;stroke-miterlimit:2;"><rect id="Export" x="-0" y="-732" width="1500" height="1080" style="fill:none;"/><g id="Box"></g><g id="Lid"></g><g id="Box1" serif:id="Box"></g><g id="Lid1" serif:id="Lid"></g><g id="Box2" serif:id="Box"></g><g id="Lid2" serif:id="Lid"></g><g id="Box3" serif:id="Box"></g><g id="Lid3" serif:id="Lid"></g><g id="Box4" serif:id="Box"></g><g id="Lid4" serif:id="Lid"></g><g id="Box5" serif:id="Box"></g><g id="Lid5" serif:id="Lid"></g><g id="Box6" serif:id="Box"></g><g id="Lid6" serif:id="Lid"></g><g id="Box7" serif:id="Box"></g><g id="Lid7" serif:id="Lid"></g><g id="Box8" serif:id="Box"></g><g id="Lid8" serif:id="Lid"><g id="Lid-Base" serif:id="Lid Base"><path d="M26.782,21.21l-25.782,-9.1l-0,8.686c0,0.551 0.414,1.103 0.965,1.241l24.817,8.686c1.241,0.414 2.482,0.414 3.585,0l24.817,-8.686c0.551,-0.138 0.965,-0.689 0.965,-1.241l0,-8.686l-25.782,8.962c-1.103,0.551 -2.482,0.551 -3.585,0.138Z" style="fill:#ddb5dd;fill-rule:nonzero;"/><path d="M30.367,21.21c-1.241,0.414 -2.482,0.414 -3.585,0l-25.782,-9.1l-0,4.136l25.782,8.962c1.241,0.414 2.482,0.414 3.585,0l25.782,-8.962l0,-4.136l-25.782,9.1Z" style="fill:#cd95cd;fill-rule:nonzero;stroke:#cd95cd;stroke-width:1px;"/><path d="M26.782,21.21l-25.782,-9.1l-0,8.686c0,0.551 0.414,1.103 0.965,1.241l24.817,8.686c1.241,0.414 2.482,0.414 3.585,0l24.817,-8.686c0.551,-0.138 0.965,-0.689 0.965,-1.241l0,-8.686l-25.782,8.962c-1.103,0.551 -2.482,0.551 -3.585,0.138Z" style="fill:none;fill-rule:nonzero;stroke:#a446a4;stroke-width:1.38px;stroke-linecap:round;stroke-miterlimit:10;"/><path d="M1,12.111l25.782,-8.962c1.241,-0.414 2.482,-0.414 3.585,0l25.782,8.962l-25.782,8.962c-1.241,0.414 -2.482,0.414 -3.585,0l-25.782,-8.962Z" style="fill:#ddb5dd;fill-rule:nonzero;stroke:#a446a4;stroke-width:1.38px;stroke-linecap:round;stroke-miterlimit:10;"/></g><g id="Lid-Ribbons" serif:id="Lid Ribbons"><path d="M34.365,4.528l-27.85,9.513l-0,9.651l12.408,4.412l0,-9.651l27.85,-9.651l-12.408,-4.274Z" style="fill:#f95252;fill-rule:nonzero;stroke:#833636;stroke-width:1.38px;stroke-linecap:round;stroke-miterlimit:10;"/><path d="M22.784,4.528l27.85,9.513l0,9.651l-12.408,4.412l0,-9.651l-27.85,-9.651l12.408,-4.274Z" style="fill:#f95252;fill-rule:nonzero;stroke:#833636;stroke-width:1.38px;stroke-linecap:round;stroke-miterlimit:10;"/><path d="M10.237,15.42l6.204,2.206" style="fill:none;fill-rule:nonzero;stroke:#d23c3c;stroke-width:1.38px;stroke-linecap:round;stroke-miterlimit:10;"/><path d="M46.911,15.42l-6.204,2.206" style="fill:none;fill-rule:nonzero;stroke:#d23c3c;stroke-width:1.38px;stroke-linecap:round;stroke-miterlimit:10;"/></g><g id="Lid-Bow" serif:id="Lid Bow"><path d="M24.3,13.627c0,0 -7.583,3.171 -17.648,-1.93c-1.103,-0.551 -0.965,-2.206 0.276,-2.62c10.616,-3.033 17.372,4.55 17.372,4.55Z" style="fill:#b44b4b;fill-rule:nonzero;stroke:#833636;stroke-width:1.38px;stroke-linecap:round;stroke-miterlimit:10;"/><path d="M32.848,13.627c0,0 7.583,3.171 17.648,-1.93c1.103,-0.551 0.965,-2.206 -0.276,-2.62c-10.616,-3.033 -17.372,4.55 -17.372,4.55Z" style="fill:#b44b4b;fill-rule:nonzero;stroke:#833636;stroke-width:1.38px;stroke-linecap:round;stroke-miterlimit:10;"/><path d="M31.883,12.386c0,0 10.065,3.033 12.271,10.478l-4.963,-0.827l-1.654,4.963c0,0 -4.688,-11.305 -8.962,-12.96l3.309,-1.654Z" style="fill:#d23c3c;fill-rule:nonzero;stroke:#833636;stroke-width:1.38px;stroke-linecap:round;stroke-miterlimit:10;"/><path d="M25.265,12.386c0,0 -10.065,3.033 -12.271,10.478l4.963,-0.827l1.517,4.963c0,0 4.688,-11.305 8.962,-12.96l-3.171,-1.654Z" style="fill:#d23c3c;fill-rule:nonzero;stroke:#833636;stroke-width:1.38px;stroke-linecap:round;stroke-miterlimit:10;"/><path d="M24.3,13.627l2.068,-3.447c0,0 -8.548,-11.168 -17.923,-8.41c-1.792,0.551 -2.895,2.344 -2.895,4.136l0.276,4.55l18.475,3.171Z" style="fill:#ec4b4b;fill-rule:nonzero;stroke:#833636;stroke-width:1.38px;stroke-linecap:round;stroke-miterlimit:10;"/><path d="M32.848,13.627l-2.068,-3.447c0,0 8.548,-11.168 17.923,-8.41c1.792,0.551 3.033,2.344 2.895,4.274l-0.276,4.412l-18.475,3.171Z" style="fill:#ec4b4b;fill-rule:nonzero;stroke:#833636;stroke-width:1.38px;stroke-linecap:round;stroke-miterlimit:10;"/><ellipse cx="28.574" cy="10.732" rx="6.204" ry="4.825" style="fill:#d23c3c;"/><path d="M28.574,8.664c2.757,0 5.101,1.517 5.928,3.447c0.138,-0.414 0.276,-0.965 0.276,-1.379c0,-2.62 -2.757,-4.825 -6.204,-4.825c-3.447,0 -6.204,2.206 -6.204,4.825c0,0.414 0.138,0.965 0.276,1.379c0.827,-2.068 3.171,-3.447 5.928,-3.447Z" style="fill:#ec4b4b;fill-rule:nonzero;"/><ellipse cx="28.574" cy="10.732" rx="6.204" ry="4.825" style="fill:none;stroke:#833636;stroke-width:1.38px;stroke-linecap:round;stroke-miterlimit:10;"/></g></g><g id="bg7"></g><g id="bg1"></g><g id="bg2"></g><g id="bg3"></g><g id="bg6"></g><g id="bg8"></g><g id="bg4"></g></svg>