<?xml version="1.0" encoding="UTF-8" standalone="no"?><!DOCTYPE svg PUBLIC "-//W3C//DTD SVG 1.1//EN" "http://www.w3.org/Graphics/SVG/1.1/DTD/svg11.dtd"><svg width="100%" height="100%" viewBox="0 0 400 35" version="1.1" xmlns="http://www.w3.org/2000/svg" xmlns:xlink="http://www.w3.org/1999/xlink" xml:space="preserve" xmlns:serif="http://www.serif.com/" style="fill-rule:evenodd;clip-rule:evenodd;stroke-linejoin:round;stroke-miterlimit:2;"><rect id="Export" x="-450" y="-50" width="1500" height="1080" style="fill:none;"/><g><path d="M9.012,-1.943c0.232,-5.2 0.864,-6.846 1.86,-9.097c0.22,-0.497 0.633,-0.951 1.177,-1.36c0.728,-0.547 1.698,-1.024 2.67,-1.462c0.922,-0.416 1.845,-0.798 2.536,-1.188c0.386,-0.217 0.695,-0.423 0.851,-0.654c1.329,-1.968 1.326,-2.892 2.283,-4.104c1.851,-2.345 1.422,-3.924 1.422,-3.924c-0.081,-0.264 0.067,-0.544 0.331,-0.625c0.264,-0.081 0.544,0.067 0.625,0.331c0,0 0.665,1.977 -1.593,4.838c-0.942,1.193 -0.931,2.107 -2.24,4.044c-0.222,0.329 -0.639,0.655 -1.189,0.965c-0.713,0.401 -1.664,0.798 -2.615,1.228c-0.902,0.407 -1.805,0.842 -2.48,1.35c-0.392,0.295 -0.705,0.608 -0.863,0.965c-0.962,2.174 -1.558,3.769 -1.78,8.779l-0.995,-0.087Z"/></g><g><path d="M17.175,-0l0.141,3.166c0.068,1.001 0.802,1.689 1.495,2.417c0.858,0.901 1.678,1.842 1.741,3.171c0.118,2.471 0.321,6.032 -0.276,7.79c-0.39,1.147 -0.631,2.583 -1.193,3.665c-0.434,0.836 -1.049,1.474 -1.986,1.72c-0.267,0.07 -0.54,-0.09 -0.611,-0.357c-0.07,-0.267 0.09,-0.54 0.357,-0.611c0.83,-0.218 1.262,-0.913 1.582,-1.723c0.378,-0.959 0.588,-2.086 0.904,-3.016c0.569,-1.675 0.336,-5.067 0.224,-7.421c-0.051,-1.074 -0.773,-1.802 -1.466,-2.529c-0.858,-0.901 -1.684,-1.8 -1.768,-3.039l-0.142,-3.233l0.998,0Z"/><path d="M399.5,14.436c0,-4.139 -3.352,-7.5 -7.481,-7.5l-384.037,0c-4.129,0 -7.481,3.361 -7.481,7.5l0,135c0,4.139 3.352,7.5 7.481,7.5l384.037,0c4.129,0 7.481,-3.361 7.481,-7.5l0,-135Zm-383.006,3.483c2.753,0 4.988,2.24 4.988,5c0,2.76 -2.235,5 -4.988,5c-2.753,0 -4.988,-2.24 -4.988,-5c0,-2.76 2.235,-5 4.988,-5Z" style="fill:#f8f0ff;"/><path d="M400,14.436c0,-4.416 -3.577,-8 -7.981,-8c0,0 -384.037,0 -384.037,0c-4.405,0 -7.981,3.584 -7.981,8c0,-0 0,135 0,135c0,4.416 3.577,8 7.981,8c-0,0 384.037,0 384.037,0c4.405,0 7.981,-3.584 7.981,-8c0,0 0,-135 0,-135Zm-1,0l0,135c0,3.863 -3.128,7 -6.981,7l-384.037,0c-3.853,0 -6.981,-3.137 -6.981,-7l0,-135c0,-3.863 3.128,-7 6.981,-7l384.037,0c3.853,0 6.981,3.137 6.981,7Zm-382.506,2.983c-3.028,0 -5.488,2.464 -5.488,5.5c0,3.036 2.459,5.5 5.488,5.5c3.028,0 5.488,-2.464 5.488,-5.5c0,-3.036 -2.459,-5.5 -5.488,-5.5Zm0,1c2.477,0 4.488,2.017 4.488,4.5c0,2.483 -2.01,4.5 -4.488,4.5c-2.477,0 -4.488,-2.017 -4.488,-4.5c0,-2.483 2.01,-4.5 4.488,-4.5Z" style="fill:#c397ef;"/><path d="M16.851,20.95c-0.235,0.088 -0.502,0.015 -0.787,-0.13c-0.383,-0.194 -0.781,-0.525 -1.17,-0.941c-1.232,-1.318 -2.357,-3.477 -2.493,-5.217c-0.245,-3.136 0.629,-6.271 1.242,-7.221c0.765,-1.185 1.62,-2.046 2.287,-2.859c0.755,-0.92 1.275,-1.793 1.294,-2.906c0.005,-0.276 -0.216,-0.504 -0.491,-0.508c-0.276,-0.005 -0.504,0.216 -0.508,0.491c-0.015,0.883 -0.468,1.558 -1.067,2.289c-0.687,0.838 -1.565,1.729 -2.354,2.951c-0.666,1.032 -1.665,4.432 -1.399,7.841c0.177,2.268 1.844,5.182 3.469,6.487c0.826,0.663 1.663,0.908 2.327,0.66c0.259,-0.096 0.39,-0.384 0.294,-0.643c-0.096,-0.259 -0.384,-0.39 -0.643,-0.294Z"/></g><g id="Box"></g><g id="Lid"></g><g id="Box1" serif:id="Box"></g><g id="Lid1" serif:id="Lid"></g><g id="Box2" serif:id="Box"></g><g id="Lid2" serif:id="Lid"></g><g id="Box3" serif:id="Box"></g><g id="Lid3" serif:id="Lid"></g><g id="Box4" serif:id="Box"></g><g id="Lid4" serif:id="Lid"></g><g id="Box5" serif:id="Box"></g><g id="Lid5" serif:id="Lid"></g><g id="Box6" serif:id="Box"></g><g id="Lid6" serif:id="Lid"></g><g id="Box7" serif:id="Box"></g><g id="Lid7" serif:id="Lid"></g><g id="Box8" serif:id="Box"></g><g id="Lid8" serif:id="Lid"></g><g id="bg7"></g><g id="bg1"></g><g id="bg2"></g><g id="bg3"></g><g id="bg6"></g><g id="bg8"></g><g id="bg4"></g></svg>