<?xml version="1.0" encoding="UTF-8" standalone="no"?><!DOCTYPE svg PUBLIC "-//W3C//DTD SVG 1.1//EN" "http://www.w3.org/Graphics/SVG/1.1/DTD/svg11.dtd"><svg width="100%" height="100%" viewBox="0 0 400 15" version="1.1" xmlns="http://www.w3.org/2000/svg" xmlns:xlink="http://www.w3.org/1999/xlink" xml:space="preserve" xmlns:serif="http://www.serif.com/" style="fill-rule:evenodd;clip-rule:evenodd;stroke-linejoin:round;stroke-miterlimit:2;"><rect id="Export" x="-450" y="-443" width="1500" height="1080" style="fill:none;"/><g><path d="M399.5,-128.564c0,-4.139 -3.352,-7.5 -7.481,-7.5l-384.037,0c-4.129,0 -7.481,3.361 -7.481,7.5l0,135c0,4.139 3.352,7.5 7.481,7.5l384.037,0c4.129,0 7.481,-3.361 7.481,-7.5l0,-135Zm-383.006,3.483c2.753,0 4.988,2.24 4.988,5c0,2.76 -2.235,5 -4.988,5c-2.753,0 -4.988,-2.24 -4.988,-5c0,-2.76 2.235,-5 4.988,-5Z" style="fill:#ffe5e5;"/><path d="M400,-128.564c0,-4.416 -3.577,-8 -7.981,-8c0,0 -384.037,0 -384.037,0c-4.405,0 -7.981,3.584 -7.981,8c0,-0 0,135 0,135c0,4.416 3.577,8 7.981,8c-0,0 384.037,0 384.037,0c4.405,0 7.981,-3.584 7.981,-8c0,0 0,-135 0,-135Zm-1,0l0,135c0,3.863 -3.128,7 -6.981,7l-384.037,0c-3.853,0 -6.981,-3.137 -6.981,-7l0,-135c0,-3.863 3.128,-7 6.981,-7l384.037,0c3.853,0 6.981,3.137 6.981,7Zm-382.506,2.983c-3.028,0 -5.488,2.464 -5.488,5.5c0,3.036 2.459,5.5 5.488,5.5c3.028,0 5.488,-2.464 5.488,-5.5c0,-3.036 -2.459,-5.5 -5.488,-5.5Zm0,1c2.477,0 4.488,2.017 4.488,4.5c0,2.483 -2.01,4.5 -4.488,4.5c-2.477,0 -4.488,-2.017 -4.488,-4.5c0,-2.483 2.01,-4.5 4.488,-4.5Z" style="fill:#ec8888;"/></g><g id="Box"></g><g id="Lid"></g><g id="Box1" serif:id="Box"></g><g id="Lid1" serif:id="Lid"></g><g id="Box2" serif:id="Box"></g><g id="Lid2" serif:id="Lid"></g><g id="Box3" serif:id="Box"></g><g id="Lid3" serif:id="Lid"></g><g id="Box4" serif:id="Box"></g><g id="Lid4" serif:id="Lid"></g><g id="Box5" serif:id="Box"></g><g id="Lid5" serif:id="Lid"></g><g id="Box6" serif:id="Box"></g><g id="Lid6" serif:id="Lid"></g><g id="Box7" serif:id="Box"></g><g id="Lid7" serif:id="Lid"></g><g id="Box8" serif:id="Box"></g><g id="Lid8" serif:id="Lid"></g><g id="bg7"></g><g id="bg1"></g><g id="bg2"></g><g id="bg3"></g><g id="bg6"></g><g id="bg8"></g><g id="bg4"></g></svg>